<?xml version="1.0" encoding="UTF-8"?>
<svg xmlns="http://www.w3.org/2000/svg" xmlns:xlink="http://www.w3.org/1999/xlink" viewBox="0 0 250 250" width="250px" height="250px">
<g id="surface225720">
<path style=" stroke:none;fill-rule:nonzero;fill:rgb(1.176471%,65.882355%,61.960787%);fill-opacity:1;" d="M 45 35 L 60 205 L 130 225 L 200 205 C 205 148.335938 210 91.664062 215 35 Z M 55.917969 45 L 204.082031 45 L 190.644531 197.277344 L 130 214.597656 L 69.355469 197.277344 Z M 92.753906 75 L 87.949219 135 L 152.902344 135 L 150.847656 160 L 130 163.097656 L 109.402344 160 L 108.496094 150 L 89.199219 150 L 91.152344 175 L 129.949219 185 L 168.796875 175 L 173.75 115 L 110.449219 115 L 112.050781 95 L 153.847656 95 L 155 105 L 173.496094 105 L 170 75 Z M 92.753906 75 "/>
</g>
</svg>
