<?xml version="1.0" encoding="UTF-8"?>
<svg xmlns="http://www.w3.org/2000/svg" xmlns:xlink="http://www.w3.org/1999/xlink" viewBox="0 0 250 250" width="250px" height="250px">
<g id="surface218160">
<path style=" stroke:none;fill-rule:nonzero;fill:rgb(1.176471%,65.882355%,61.960787%);fill-opacity:1;" d="M 33.339844 20 C 26.035156 20 20 26.035156 20 33.339844 L 20 216.660156 C 20 223.964844 26.035156 230 33.339844 230 L 216.660156 230 C 223.964844 230 230 223.984375 230 216.660156 L 230 33.339844 C 230 26.035156 223.984375 20 216.660156 20 Z M 33.339844 30 L 216.660156 30 C 218.515625 30 220 31.484375 220 33.339844 L 220 216.660156 C 220 218.515625 218.515625 220 216.660156 220 L 33.339844 220 C 31.484375 220 30 218.515625 30 216.660156 L 30 33.339844 C 30 31.484375 31.484375 30 33.339844 30 Z M 115 115 L 115 177.871094 C 115 187.519531 111.347656 190 105 190 C 98.359375 190 93.75 185.859375 90.703125 180.488281 L 75 190 C 79.550781 199.628906 90.703125 210 106.171875 210 C 123.28125 210 135 200.898438 135 180.917969 L 135 115 Z M 177.265625 115 C 160.234375 115 149.316406 125.898438 149.316406 140.214844 C 149.316406 155.742188 158.476562 163.085938 172.246094 168.945312 L 177.011719 170.996094 C 185.703125 174.804688 190 177.128906 190 183.671875 C 190 189.121094 185.859375 193.066406 177.949219 193.066406 C 168.535156 193.066406 164.082031 186.679688 160 180 L 145 190 C 150.605469 201.074219 160.664062 210 178.378906 210 C 196.503906 210 210 200.585938 210 183.417969 C 210 167.480469 200.859375 160.390625 184.628906 153.4375 L 179.863281 151.40625 C 171.679688 147.851562 168.125 145.546875 168.125 139.824219 C 168.125 135.195312 171.679688 131.640625 177.265625 131.640625 C 182.753906 131.640625 186.269531 133.964844 189.53125 139.824219 L 204.394531 130.292969 C 198.125 119.21875 189.394531 115 177.265625 115 Z M 177.265625 115 "/>
</g>
</svg>
