<?xml version="1.0" encoding="UTF-8"?>
<svg xmlns="http://www.w3.org/2000/svg" xmlns:xlink="http://www.w3.org/1999/xlink" viewBox="0 0 250 250" width="250px" height="250px">
<g id="surface226412">
<path style=" stroke:none;fill-rule:evenodd;fill:rgb(1.176471%,65.882355%,61.960787%);fill-opacity:1;" d="M 195 200 L 125 220 L 55 200 L 40 30 L 210 30 C 205 86.660156 200 143.339844 195 200 Z M 199.082031 40 L 50.917969 40 L 64.355469 192.265625 L 125 209.609375 L 185.644531 192.265625 Z M 84.003906 140 L 104.003906 140 L 104.492188 152.5 L 125 159.492188 L 145.507812 152.5 L 146.992188 130 L 103.007812 130 L 101.992188 110 L 148.007812 110 L 149.492188 90 L 80.507812 90 L 79.003906 70 L 170.507812 70 L 168.007812 110 L 164.492188 167.5 L 125 180.507812 L 85.507812 167.5 Z M 84.003906 140 "/>
</g>
</svg>
