<?xml version="1.0" encoding="UTF-8"?>
<svg xmlns="http://www.w3.org/2000/svg" xmlns:xlink="http://www.w3.org/1999/xlink" viewBox="0 0 250 250" width="250px" height="250px">
<g id="surface223453">
<path style=" stroke:none;fill-rule:nonzero;fill:rgb(1.176471%,65.882355%,61.960787%);fill-opacity:1;" d="M 25 20 C 22.238281 20 20 22.238281 20 25 L 20 225 C 20 227.761719 22.238281 230 25 230 L 225 230 C 227.761719 230 230 227.761719 230 225 L 230 25 C 230 22.238281 227.761719 20 225 20 Z M 30 30 L 220 30 L 220 220 L 30 220 Z M 75 115 L 75 132.226562 L 100 132.226562 L 100 210 L 120 210 L 120 132.226562 L 145 132.226562 L 145 115 Z M 183.457031 115.050781 C 167.882812 114.988281 150.089844 119.707031 150.089844 141.621094 C 150.089844 170.269531 188.691406 170.277344 188.691406 183.203125 C 188.691406 184.429688 189.210938 193.332031 175.585938 193.332031 C 161.960938 193.332031 150.605469 184.765625 150.605469 184.765625 L 150.605469 205.558594 C 150.605469 205.558594 210.011719 224.769531 210.011719 181.445312 C 210.003906 153.320312 171.046875 154.726562 171.046875 140.753906 C 171.046875 135.335938 174.890625 130.273438 185.546875 130.273438 C 196.203125 130.273438 205.636719 136.5625 205.636719 136.5625 L 206.339844 118.035156 C 206.339844 118.035156 195.570312 115.097656 183.457031 115.046875 Z M 183.457031 115.050781 "/>
</g>
</svg>
